<mxfile host="app.diagrams.net" agent="Mozilla/5.0 (Windows NT 10.0; Win64; x64) AppleWebKit/537.36 (KHTML, like Gecko) Chrome/135.0.0.0 Safari/537.36" version="26.2.14">
  <diagram name="Pagina-1" id="O8XDL2aqArAeWk8hf0hC">
    <mxGraphModel grid="1" page="1" gridSize="10" guides="1" tooltips="1" connect="1" arrows="1" fold="1" pageScale="1" pageWidth="827" pageHeight="1169" math="0" shadow="0">
      <root>
        <mxCell id="0" />
        <mxCell id="1" parent="0" />
        <mxCell id="YXuvhPvyEjiZBPRnlSS0-1" value="FACT TABLE (POST)&lt;br&gt;&lt;u style=&quot;font-weight: bold;&quot;&gt;ID_Autore&lt;/u&gt;&lt;br&gt;Nickname&lt;br&gt;Età&lt;br&gt;&lt;u style=&quot;font-weight: bold;&quot;&gt;Data_ora&lt;/u&gt;&lt;div&gt;Periodo del giorno&lt;br&gt;Giorno della settimana&lt;br&gt;&lt;i&gt;ID_Autore_fonte&lt;/i&gt;&lt;br&gt;&lt;i&gt;Data_ora_fonte&lt;/i&gt;&lt;br&gt;N. Tag&lt;br&gt;N. Mi piace&lt;br&gt;N. Amore&lt;br&gt;N. Divertente&lt;div&gt;N. Wow&lt;br&gt;N. Triste&lt;/div&gt;&lt;div&gt;N. Ira&lt;br&gt;N. Menzioni&lt;/div&gt;&lt;/div&gt;" style="whiteSpace=wrap;html=1;align=center;" vertex="1" parent="1">
          <mxGeometry x="360" y="250" width="160" height="260" as="geometry" />
        </mxCell>
        <mxCell id="YXuvhPvyEjiZBPRnlSS0-3" value="FEEDBACK_PER_POST&lt;br&gt;&lt;u style=&quot;font-weight: bold;&quot;&gt;ID_Utente&lt;/u&gt;&lt;br&gt;&lt;b&gt;&lt;u&gt;Data_ora&lt;/u&gt;&lt;/b&gt;&lt;br&gt;&lt;b&gt;&lt;u&gt;Tipologia&lt;/u&gt;&lt;/b&gt;&lt;br&gt;Conteggio" style="whiteSpace=wrap;html=1;align=center;" vertex="1" parent="1">
          <mxGeometry x="630" y="550" width="160" height="90" as="geometry" />
        </mxCell>
        <mxCell id="YXuvhPvyEjiZBPRnlSS0-5" value="GRUPPI_MENZIONE&lt;br&gt;&lt;u style=&quot;font-weight: bold;&quot;&gt;ID_Gruppo&lt;/u&gt;&lt;div&gt;Fascia d&#39;età&lt;br&gt;Genere&lt;/div&gt;" style="whiteSpace=wrap;html=1;align=center;" vertex="1" parent="1">
          <mxGeometry x="630" y="140" width="140" height="100" as="geometry" />
        </mxCell>
        <mxCell id="YXuvhPvyEjiZBPRnlSS0-6" value="TAG_GROUPS&lt;br&gt;&lt;b&gt;&lt;u&gt;ID_Group&lt;/u&gt;&lt;/b&gt;&lt;br&gt;Label" style="whiteSpace=wrap;html=1;align=center;" vertex="1" parent="1">
          <mxGeometry x="70" y="552.5" width="100" height="105" as="geometry" />
        </mxCell>
        <mxCell id="YXuvhPvyEjiZBPRnlSS0-7" value="UTENTE&lt;div&gt;&lt;b&gt;&lt;u&gt;ID_Utente&lt;/u&gt;&lt;br&gt;&lt;/b&gt;Nickname&lt;br&gt;Nome&lt;br&gt;Foto_profilo&lt;br&gt;Data_di_nascita&lt;br&gt;Genere&lt;br&gt;Pronomi&lt;br&gt;Biografia&lt;br&gt;E-mail&lt;br&gt;Password&lt;br&gt;Telefono&lt;br&gt;Verificato?&lt;br&gt;&lt;i&gt;Link&lt;br&gt;&lt;/i&gt;Contenuti_sensibili?&lt;/div&gt;" style="whiteSpace=wrap;html=1;align=center;" vertex="1" parent="1">
          <mxGeometry x="70" y="60" width="130" height="240" as="geometry" />
        </mxCell>
        <mxCell id="YXuvhPvyEjiZBPRnlSS0-8" value="" style="edgeStyle=entityRelationEdgeStyle;fontSize=12;html=1;endArrow=ERzeroToMany;startArrow=ERmandOne;rounded=0;exitX=1;exitY=0.5;exitDx=0;exitDy=0;entryX=0.003;entryY=0.347;entryDx=0;entryDy=0;entryPerimeter=0;" edge="1" parent="1" source="YXuvhPvyEjiZBPRnlSS0-7" target="YXuvhPvyEjiZBPRnlSS0-1">
          <mxGeometry width="100" height="100" relative="1" as="geometry">
            <mxPoint x="360" y="390" as="sourcePoint" />
            <mxPoint x="460" y="290" as="targetPoint" />
          </mxGeometry>
        </mxCell>
        <mxCell id="YXuvhPvyEjiZBPRnlSS0-14" value="" style="edgeStyle=entityRelationEdgeStyle;fontSize=12;html=1;endArrow=ERzeroToMany;endFill=1;startArrow=ERzeroToMany;rounded=0;exitX=1;exitY=0.5;exitDx=0;exitDy=0;entryX=0;entryY=0.75;entryDx=0;entryDy=0;" edge="1" parent="1" source="YXuvhPvyEjiZBPRnlSS0-6" target="YXuvhPvyEjiZBPRnlSS0-1">
          <mxGeometry width="100" height="100" relative="1" as="geometry">
            <mxPoint x="360" y="450" as="sourcePoint" />
            <mxPoint x="460" y="350" as="targetPoint" />
          </mxGeometry>
        </mxCell>
        <mxCell id="YXuvhPvyEjiZBPRnlSS0-15" value="" style="edgeStyle=entityRelationEdgeStyle;fontSize=12;html=1;endArrow=ERzeroToMany;endFill=1;startArrow=ERzeroToMany;rounded=0;entryX=0;entryY=0.5;entryDx=0;entryDy=0;exitX=1.008;exitY=0.348;exitDx=0;exitDy=0;exitPerimeter=0;" edge="1" parent="1" source="YXuvhPvyEjiZBPRnlSS0-1" target="YXuvhPvyEjiZBPRnlSS0-5">
          <mxGeometry width="100" height="100" relative="1" as="geometry">
            <mxPoint x="360" y="430" as="sourcePoint" />
            <mxPoint x="460" y="330" as="targetPoint" />
          </mxGeometry>
        </mxCell>
        <mxCell id="kggaY4Le9m3HGKF7Ujwb-1" value="" style="edgeStyle=entityRelationEdgeStyle;fontSize=12;html=1;endArrow=ERzeroToMany;endFill=1;startArrow=ERzeroToMany;rounded=0;exitX=0;exitY=0.5;exitDx=0;exitDy=0;entryX=1;entryY=0.75;entryDx=0;entryDy=0;" edge="1" parent="1" source="YXuvhPvyEjiZBPRnlSS0-3" target="YXuvhPvyEjiZBPRnlSS0-1">
          <mxGeometry width="100" height="100" relative="1" as="geometry">
            <mxPoint x="370" y="360" as="sourcePoint" />
            <mxPoint x="450" y="210" as="targetPoint" />
          </mxGeometry>
        </mxCell>
      </root>
    </mxGraphModel>
  </diagram>
</mxfile>
